<svg xmlns="http://www.w3.org/2000/svg" viewBox="0 0 60 60"><path d="M50.98 20.69c-0.53-9-7.95-16.19-16.89-16.19 -5.43 0-10.69 2.66-13.95 7.01 -0.07-0.04-0.15-0.06-0.23-0.1 -0.2-0.1-0.4-0.19-0.6-0.27 -0.11-0.04-0.23-0.09-0.35-0.13 -0.2-0.07-0.41-0.13-0.61-0.19 -0.12-0.03-0.23-0.06-0.35-0.09 -0.22-0.05-0.45-0.09-0.68-0.12 -0.1-0.01-0.2-0.04-0.3-0.05C16.68 10.52 16.34 10.5 16 10.5c-4.96 0-9 4.04-9 9 0 0.13 0.01 0.26 0.02 0.38C2.86 22.15 0 26.9 0 31.65 0 38.74 5.76 44.5 12.85 44.5H18c0.55 0 1-0.45 1-1s-0.45-1-1-1h-5.15C6.87 42.5 2 37.64 2 31.65c0-4.15 2.71-8.47 6.43-10.25L9 21.13V20.5c0-0.12 0.01-0.25 0.02-0.37l0.01-0.17 -0.01-0.19C9.01 19.68 9 19.59 9 19.5c0-3.86 3.14-7 7-7 0.31 0 0.61 0.03 0.92 0.07 0.08 0.01 0.16 0.02 0.23 0.04 0.27 0.04 0.53 0.1 0.79 0.18 0.03 0.01 0.07 0.02 0.1 0.03 0.29 0.09 0.56 0.2 0.84 0.32 0.07 0.03 0.14 0.07 0.21 0.1 0.24 0.12 0.48 0.25 0.71 0.4C21.72 14.88 23 17.04 23 19.5c0 0.55 0.45 1 1 1s1-0.45 1-1c0-2.75-1.25-5.22-3.2-6.87C24.67 8.88 29.39 6.5 34.08 6.5c7.74 0 14.18 6.14 14.85 13.89 -1.02-0.07-2.55-0.11-4.08 0.13 -0.55 0.08-0.92 0.59-0.84 1.14 0.08 0.5 0.5 0.85 0.99 0.85 0.05 0 0.1 0 0.15-0.01 2.22-0.34 4.54-0.02 4.68 0C54.49 23.37 58 27.66 58 32.47 58 38 53.5 42.5 47.97 42.5H44c-0.55 0-1 0.45-1 1s0.45 1 1 1h3.97C54.6 44.5 60 39.1 60 32.47 60 26.98 56.17 22.06 50.98 20.69z"/><path d="M31.71 30.79c-0.09-0.09-0.2-0.17-0.33-0.22 -0.24-0.1-0.52-0.1-0.76 0 -0.12 0.05-0.23 0.12-0.33 0.22l-8 8c-0.39 0.39-0.39 1.02 0 1.41C22.49 40.4 22.74 40.5 23 40.5s0.51-0.1 0.71-0.29L30 33.91V54.5c0 0.55 0.45 1 1 1s1-0.45 1-1V33.91l6.29 6.29C38.49 40.4 38.74 40.5 39 40.5s0.51-0.1 0.71-0.29c0.39-0.39 0.39-1.02 0-1.41L31.71 30.79z"/></svg>